<svg width="26" height="25" viewBox="0 0 26 25" fill="none" xmlns="http://www.w3.org/2000/svg">
<path fill-rule="evenodd" clip-rule="evenodd" d="M20.2792 10C19.9477 10 19.6297 9.8683 19.3953 9.63388C19.1609 9.39946 19.0292 9.08152 19.0292 8.75V6.25H16.5292C16.1977 6.25 15.8797 6.1183 15.6453 5.88388C15.4109 5.64946 15.2792 5.33152 15.2792 5C15.2792 4.66848 15.4109 4.35054 15.6453 4.11612C15.8797 3.8817 16.1977 3.75 16.5292 3.75H19.0292V1.25C19.0292 0.918479 19.1609 0.600537 19.3953 0.366116C19.6297 0.131696 19.9477 0 20.2792 0C20.6107 0 20.9286 0.131696 21.1631 0.366116C21.3975 0.600537 21.5292 0.918479 21.5292 1.25V3.75H24.0292C24.3607 3.75 24.6786 3.8817 24.9131 4.11612C25.1475 4.35054 25.2792 4.66848 25.2792 5C25.2792 5.33152 25.1475 5.64946 24.9131 5.88388C24.6786 6.1183 24.3607 6.25 24.0292 6.25H21.5292V8.75C21.5292 9.08152 21.3975 9.39946 21.1631 9.63388C20.9286 9.8683 20.6107 10 20.2792 10ZM3.61251 22.5C3.39149 22.5 3.17953 22.4122 3.02325 22.2559C2.86697 22.0996 2.77917 21.8877 2.77917 21.6667V5C2.77917 4.77899 2.86697 4.56702 3.02325 4.41074C3.17953 4.25446 3.39149 4.16667 3.61251 4.16667H10.6958C11.0274 4.16667 11.3453 4.03497 11.5797 3.80055C11.8141 3.56613 11.9458 3.24819 11.9458 2.91667C11.9458 2.58515 11.8141 2.2672 11.5797 2.03278C11.3453 1.79836 11.0274 1.66667 10.6958 1.66667H3.61251C2.72845 1.66667 1.88061 2.01786 1.25549 2.64298C0.630364 3.2681 0.279175 4.11594 0.279175 5V21.6667C0.279175 22.5507 0.630364 23.3986 1.25549 24.0237C1.88061 24.6488 2.72845 25 3.61251 25H20.2792C21.1632 25 22.0111 24.6488 22.6362 24.0237C23.2613 23.3986 23.6125 22.5507 23.6125 21.6667V14.5833C23.6125 14.2518 23.4808 13.9339 23.2464 13.6995C23.012 13.465 22.694 13.3333 22.3625 13.3333C22.031 13.3333 21.713 13.465 21.4786 13.6995C21.2442 13.9339 21.1125 14.2518 21.1125 14.5833V21.6667C21.1125 21.8877 21.0247 22.0996 20.8684 22.2559C20.7122 22.4122 20.5002 22.5 20.2792 22.5H3.61251Z" fill="white"/>
</svg>
