<svg width="28" height="22" viewBox="0 0 28 22" fill="none" xmlns="http://www.w3.org/2000/svg">
<path d="M8.64757 10.5926C10.0673 10.5926 11.429 10.0346 12.4329 9.04134C13.4368 8.04809 14.0008 6.70096 14.0008 5.2963C14.0008 3.89163 13.4368 2.5445 12.4329 1.55125C11.429 0.558001 10.0673 0 8.64757 0C7.2278 0 5.86617 0.558001 4.86224 1.55125C3.85831 2.5445 3.29431 3.89163 3.29431 5.2963C3.29431 6.70096 3.85831 8.04809 4.86224 9.04134C5.86617 10.0346 7.2278 10.5926 8.64757 10.5926ZM18.0149 18.977C18.8879 19.3307 19.9981 19.5556 21.4114 19.5556C28 19.5556 28 14.6667 28 14.6667C28 14.0186 27.7399 13.3971 27.2769 12.9388C26.8139 12.4804 26.1859 12.2227 25.5309 12.2222H17.9079C18.5552 12.9979 18.9439 13.9904 18.9439 15.0741V15.6542C18.9406 15.7914 18.9312 15.9285 18.9159 16.0649C18.8048 17.0831 18.498 18.0712 18.0149 18.977ZM25.5309 6.51852C25.5309 7.59903 25.0971 8.63529 24.3248 9.39932C23.5526 10.1634 22.5052 10.5926 21.413 10.5926C20.3209 10.5926 19.2735 10.1634 18.5012 9.39932C17.729 8.63529 17.2951 7.59903 17.2951 6.51852C17.2951 5.43801 17.729 4.40175 18.5012 3.63771C19.2735 2.87368 20.3209 2.44444 21.413 2.44444C22.5052 2.44444 23.5526 2.87368 24.3248 3.63771C25.0971 4.40175 25.5309 5.43801 25.5309 6.51852ZM0 15.4815C0 14.6171 0.347078 13.7881 0.964881 13.1768C1.58268 12.5656 2.42061 12.2222 3.29431 12.2222H14.0008C14.8745 12.2222 15.7124 12.5656 16.3303 13.1768C16.9481 13.7881 17.2951 14.6171 17.2951 15.4815C17.2951 15.4815 17.2951 22 8.64757 22C0 22 0 15.4815 0 15.4815Z" fill="#1F51C6"/>
</svg>
