<svg width="56" height="62" viewBox="0 0 56 62" fill="none" xmlns="http://www.w3.org/2000/svg">
<path d="M3 53V9.25C3 7.5924 3.65848 6.00268 4.83058 4.83058C6.00268 3.65848 7.5924 3 9.25 3H51.125C51.6223 3 52.0992 3.19754 52.4508 3.54917C52.8025 3.90081 53 4.37772 53 4.875V45.8563M9.25 46.75H53M9.25 59.25H53" stroke="black" stroke-width="4.6875" stroke-linecap="round"/>
<path d="M9.25 59.25C7.5924 59.25 6.00268 58.5915 4.83058 57.4194C3.65848 56.2473 3 54.6576 3 53C3 51.3424 3.65848 49.7527 4.83058 48.5806C6.00268 47.4085 7.5924 46.75 9.25 46.75" stroke="black" stroke-width="4.6875" stroke-linecap="round" stroke-linejoin="round"/>
<path d="M18.625 15.5H37.375" stroke="black" stroke-width="4.6875" stroke-linecap="round"/>
</svg>
