<svg width="14" height="15" viewBox="0 0 14 15" fill="none" xmlns="http://www.w3.org/2000/svg">
<path d="M12.575 2.425C12.7673 2.425 12.9517 2.50138 13.0877 2.63735C13.2236 2.77331 13.3 2.95772 13.3 3.15C13.3 3.34228 13.2236 3.52669 13.0877 3.66265C12.9517 3.79862 12.7673 3.875 12.575 3.875H11.9015C11.8727 3.875 11.849 3.8977 11.8478 3.92648V3.92648L11.1714 13.403C11.1454 13.7688 10.9817 14.1111 10.7133 14.3611C10.4449 14.611 10.0918 14.75 9.72503 14.75H3.82425C3.4575 14.75 3.10437 14.611 2.83599 14.3611C2.56761 14.1111 2.40391 13.7688 2.37788 13.403L1.70145 3.9272V3.9272C1.69963 3.89848 1.67655 3.875 1.64777 3.875H0.975C0.782718 3.875 0.598311 3.79862 0.462348 3.66265C0.326384 3.52669 0.25 3.34228 0.25 3.15C0.25 2.95772 0.326384 2.77331 0.462348 2.63735C0.598311 2.50138 0.782718 2.425 0.975 2.425H12.575ZM8.225 0.25C8.41728 0.25 8.60169 0.326384 8.73765 0.462348C8.87362 0.598311 8.95 0.782718 8.95 0.975C8.95 1.16728 8.87362 1.35169 8.73765 1.48765C8.60169 1.62362 8.41728 1.7 8.225 1.7H5.325C5.13272 1.7 4.94831 1.62362 4.81235 1.48765C4.67638 1.35169 4.6 1.16728 4.6 0.975C4.6 0.782718 4.67638 0.598311 4.81235 0.462348C4.94831 0.326384 5.13272 0.25 5.325 0.25H8.225Z" fill="white"/>
</svg>
