<svg width="30" height="31" viewBox="0 0 30 31" fill="none" xmlns="http://www.w3.org/2000/svg">
<path fill-rule="evenodd" clip-rule="evenodd" d="M23.1949 7.27344C23.1949 10.1576 22.4782 13.9193 21.3757 13.3484C20.9249 14.8207 19.9784 16.0916 18.697 16.9452C17.4156 17.7989 15.8782 18.1827 14.3459 18.0315C12.8136 17.8804 11.3808 17.2035 10.2909 16.116C9.20097 15.0284 8.52105 13.5971 8.36658 12.0651C7.27242 10.1509 5.83742 6.31511 9.52658 3.32511C9.59325 3.30344 9.63325 3.12344 9.69325 2.85844C9.92158 1.85594 10.4274 -0.37239 13.6182 0.0534435C16.0791 0.380944 23.1949 1.65094 23.1949 7.27344ZM20.0232 9.09178C20.0232 9.09178 19.6466 10.1934 19.9999 11.4209C19.9953 12.7298 19.4777 13.9846 18.5582 14.916C17.6388 15.8475 16.3907 16.3812 15.082 16.4027C13.7734 16.4242 12.5085 15.9317 11.5589 15.031C10.6093 14.1302 10.0508 12.8931 10.0032 11.5851C10.1241 11.1268 10.1241 10.3509 10.1233 9.48844C10.1224 7.93261 10.1208 6.09678 10.8333 5.34844C15.8241 8.67261 20.0232 9.09178 20.0232 9.09178Z" fill="#1F51C6"/>
<path d="M5.83333 25.7651C5.83333 24.8634 6.31083 24.0734 7.0275 23.6334C7.00021 23.5297 6.97465 23.4255 6.95083 23.3209C6.82438 22.7516 6.72565 22.1765 6.655 21.5976C6.5834 21.0429 6.54029 20.485 6.52583 19.9259C3.00833 21.3068 0 23.7134 0 26.2401V30.7651H30V26.2401C30 23.8201 27.2417 21.5109 23.9183 20.1068V20.1301C23.9333 20.6384 23.905 21.2218 23.85 21.7826C23.8 22.3026 23.7258 22.8209 23.6367 23.2651H24.1667C24.3214 23.2652 24.473 23.3083 24.6046 23.3897C24.7362 23.4711 24.8425 23.5875 24.9117 23.7259L25.745 25.3926C25.8033 25.5084 25.8333 25.6359 25.8333 25.7651V27.4318C25.8333 27.6528 25.7455 27.8647 25.5893 28.021C25.433 28.1773 25.221 28.2651 25 28.2651H23.3333V26.5984H24.1667V25.9618L23.6517 24.9318H21.3483L20.8333 25.9618V26.5984H21.6667V28.2651H20C19.779 28.2651 19.567 28.1773 19.4107 28.021C19.2545 27.8647 19.1667 27.6528 19.1667 27.4318V25.7651C19.1667 25.6359 19.1967 25.5084 19.255 25.3926L20.0883 23.7259C20.1575 23.5875 20.2638 23.4711 20.3954 23.3897C20.527 23.3083 20.6786 23.2652 20.8333 23.2651H21.9292C21.9475 23.1934 21.9658 23.1143 21.9842 23.0268C22.0675 22.6343 22.1417 22.1368 22.1917 21.6226C22.2417 21.1076 22.265 20.5968 22.2525 20.1768C22.2494 20.0028 22.2357 19.8291 22.2117 19.6568C22.1933 19.5384 22.175 19.4843 22.1717 19.4726C22.1708 19.4701 22.17 19.4693 22.1717 19.4709L22.1742 19.4701C21.732 19.3327 21.2847 19.2124 20.8333 19.1093C20.4142 19.0134 19.9808 19.5901 19.7917 19.9509H10C9.97567 19.9045 9.95178 19.8578 9.92833 19.8109C9.75167 19.4593 9.53417 19.0251 9.16667 19.1093C8.84583 19.1818 8.525 19.2651 8.20417 19.3568C8.19383 19.5029 8.18938 19.6494 8.19083 19.7959C8.19417 20.2568 8.23833 20.8209 8.30917 21.3909C8.38 21.9593 8.47583 22.5126 8.57583 22.9493C8.60417 23.0751 8.6325 23.1884 8.65917 23.2859C9.13559 23.3486 9.58388 23.5472 9.95035 23.858C10.3168 24.1688 10.586 24.5786 10.7255 25.0384C10.8651 25.4982 10.8692 25.9885 10.7374 26.4506C10.6055 26.9127 10.3433 27.327 9.98206 27.6439C9.62085 27.9608 9.17595 28.1669 8.70064 28.2375C8.22533 28.3081 7.73974 28.2402 7.30201 28.042C6.86428 27.8437 6.49295 27.5235 6.23248 27.1197C5.97201 26.7159 5.83343 26.2456 5.83333 25.7651Z" fill="#1F51C6"/>
<path d="M9.16667 25.7651C9.16667 26.2434 8.78167 26.6109 8.33333 26.6109C7.885 26.6109 7.5 26.2442 7.5 25.7651C7.5 25.2867 7.885 24.9193 8.33333 24.9193C8.78167 24.9193 9.16667 25.2859 9.16667 25.7651Z" fill="#1F51C6"/>
</svg>
