<svg width="26" height="25" viewBox="0 0 26 25" fill="none" xmlns="http://www.w3.org/2000/svg">
<path d="M2.83016 22.2603H4.81127L17.0163 10.4452L15.0352 8.5274L2.83016 20.3425V22.2603ZM23.0658 8.4589L17.0517 2.70548L19.0328 0.787671C19.5753 0.262557 20.2418 0 21.0323 0C21.8229 0 22.4889 0.262557 23.0304 0.787671L25.0115 2.70548C25.554 3.23059 25.837 3.86438 25.8606 4.60685C25.8842 5.34931 25.6247 5.98265 25.0823 6.50685L23.0658 8.4589ZM21.0139 10.4795L6.01409 25H0V19.1781L14.9999 4.65753L21.0139 10.4795ZM16.0258 9.4863L15.0352 8.5274L17.0163 10.4452L16.0258 9.4863Z" fill="white"/>
</svg>
