<svg width="13" height="14" viewBox="0 0 13 14" fill="none" xmlns="http://www.w3.org/2000/svg">
<path fill-rule="evenodd" clip-rule="evenodd" d="M7.19792 7.25V12.325C7.19792 12.5173 7.12472 12.7017 6.99442 12.8377C6.86412 12.9736 6.6874 13.05 6.50313 13.05C6.31885 13.05 6.14213 12.9736 6.01183 12.8377C5.88153 12.7017 5.80833 12.5173 5.80833 12.325V7.25H0.944792C0.760521 7.25 0.583798 7.17362 0.4535 7.03765C0.323201 6.90169 0.25 6.71728 0.25 6.525C0.25 6.33272 0.323201 6.14831 0.4535 6.01235C0.583798 5.87638 0.760521 5.8 0.944792 5.8H5.80833V0.725C5.80833 0.532718 5.88153 0.348311 6.01183 0.212348C6.14213 0.0763837 6.31885 0 6.50313 0C6.6874 0 6.86412 0.0763837 6.99442 0.212348C7.12472 0.348311 7.19792 0.532718 7.19792 0.725V5.8H12.0615C12.2457 5.8 12.4225 5.87638 12.5528 6.01235C12.683 6.14831 12.7563 6.33272 12.7563 6.525C12.7563 6.71728 12.683 6.90169 12.5528 7.03765C12.4225 7.17362 12.2457 7.25 12.0615 7.25H7.19792Z" fill="white"/>
</svg>
