<svg width="25" height="26" viewBox="0 0 25 26" fill="none" xmlns="http://www.w3.org/2000/svg">
<path d="M13.2646 5.99805H11.8554C11.7265 5.99805 11.621 6.10352 11.621 6.23243V14.2979C11.621 14.374 11.6562 14.4443 11.7177 14.4883L16.5605 18.0244C16.6659 18.1006 16.8124 18.0801 16.8886 17.9746L17.7265 16.832C17.8056 16.7236 17.7821 16.5772 17.6767 16.5039L13.4989 13.4834V6.23243C13.4989 6.10352 13.3935 5.99805 13.2646 5.99805ZM19.704 8.20118L24.2978 9.32325C24.4443 9.3584 24.5878 9.24707 24.5878 9.09766L24.6113 4.36621C24.6113 4.16993 24.3857 4.0586 24.2333 4.18164L19.6161 7.78809C19.5812 7.81508 19.5547 7.85138 19.5395 7.8928C19.5243 7.93423 19.5211 7.97909 19.5303 8.02224C19.5395 8.0654 19.5607 8.10508 19.5914 8.13674C19.6221 8.16839 19.6612 8.19072 19.704 8.20118ZM24.6171 17.0225L22.956 16.4512C22.8981 16.4313 22.8347 16.4349 22.7794 16.4612C22.7241 16.4875 22.6813 16.5344 22.6601 16.5918C22.6044 16.7412 22.5458 16.8877 22.4843 17.0342C21.9628 18.2676 21.2157 19.3779 20.2607 20.3301C19.3162 21.2775 18.1969 22.0326 16.9648 22.5537C15.6884 23.0934 14.3164 23.3704 12.9306 23.3682C11.5302 23.3682 10.1737 23.0957 8.8964 22.5537C7.66429 22.0326 6.54498 21.2775 5.60051 20.3301C4.64836 19.3779 3.90129 18.2676 3.37687 17.0342C2.8402 15.7571 2.56524 14.3853 2.56828 13C2.56828 11.5996 2.84074 10.2402 3.38273 8.96289C3.90422 7.7295 4.65129 6.61914 5.60637 5.667C6.55084 4.71959 7.67015 3.96443 8.90226 3.44336C10.1737 2.90137 11.5331 2.62891 12.9335 2.62891C14.3339 2.62891 15.6904 2.90137 16.9677 3.44336C18.1998 3.96443 19.3191 4.71959 20.2636 5.667C20.5624 5.96875 20.8437 6.28223 21.1015 6.61328L22.8534 5.24219C20.5478 2.29493 16.9589 0.399417 12.9277 0.402347C5.90812 0.405277 0.271403 6.10645 0.341715 13.1289C0.412028 20.0283 6.02238 25.5977 12.9335 25.5977C18.3681 25.5977 22.997 22.1523 24.7607 17.3272C24.8046 17.2041 24.7402 17.0664 24.6171 17.0225Z" fill="white"/>
</svg>
