<svg width="31" height="33" viewBox="0 0 31 33" fill="none" xmlns="http://www.w3.org/2000/svg">
<path d="M25.1675 16.1562H16.4858C15.9104 16.1569 15.3587 16.4106 14.9517 16.8617C14.5448 17.3128 14.316 17.9245 14.3154 18.5625V25.7812H2.37817V13.75H0.207764V33H2.37817V28.1875H28.4231V33H30.5935V22.1719C30.5917 20.577 30.0195 19.048 29.0023 17.9203C27.9851 16.7926 26.606 16.1582 25.1675 16.1562ZM28.4231 25.7812H16.4858V18.5625H25.1675C26.0306 18.5635 26.8582 18.944 27.4686 19.6207C28.0789 20.2974 28.4222 21.2149 28.4231 22.1719V25.7812Z" fill="white"/>
<path d="M8.47946 17.5312C8.80498 17.5312 9.1232 17.6341 9.39386 17.8267C9.66453 18.0193 9.87549 18.2931 10.0001 18.6135C10.1246 18.9338 10.1572 19.2863 10.0937 19.6264C10.0302 19.9665 9.87346 20.2788 9.64328 20.524C9.4131 20.7692 9.11983 20.9362 8.80055 21.0038C8.48128 21.0715 8.15035 21.0367 7.8496 20.904C7.54885 20.7714 7.2918 20.5467 7.11095 20.2584C6.93009 19.9701 6.83356 19.6311 6.83356 19.2844C6.83414 18.8196 7.00774 18.3741 7.31627 18.0454C7.62481 17.7168 8.04312 17.5319 8.47946 17.5312ZM8.47946 15.1937C7.71989 15.1937 6.97739 15.4337 6.34583 15.8831C5.71428 16.3326 5.22205 16.9715 4.93137 17.719C4.6407 18.4664 4.56465 19.2889 4.71283 20.0824C4.86102 20.8759 5.22678 21.6048 5.76387 22.1769C6.30096 22.749 6.98526 23.1386 7.73023 23.2964C8.47519 23.4542 9.24737 23.3732 9.94912 23.0636C10.6509 22.754 11.2507 22.2297 11.6726 21.557C12.0946 20.8843 12.3199 20.0934 12.3199 19.2844C12.3199 18.1995 11.9153 17.159 11.195 16.3919C10.4748 15.6247 9.498 15.1937 8.47946 15.1937ZM21.098 4.675H16.7089V0H14.5144V4.675H10.1253V7.0125H14.5144V11.6875H16.7089V7.0125H21.098V4.675Z" fill="white"/>
</svg>
