<svg width="21" height="25" viewBox="0 0 21 25" fill="none" xmlns="http://www.w3.org/2000/svg">
<path d="M14.6447 13.2978C14.6447 13.5348 14.55 13.7622 14.3815 13.9298C14.213 14.0974 13.9844 14.1916 13.746 14.1916H6.55674C6.3184 14.1916 6.08982 14.0974 5.92129 13.9298C5.75276 13.7622 5.65808 13.5348 5.65808 13.2978C5.65808 13.0607 5.75276 12.8334 5.92129 12.6658C6.08982 12.4982 6.3184 12.404 6.55674 12.404H13.746C13.9844 12.404 14.213 12.4982 14.3815 12.6658C14.55 12.8334 14.6447 13.0607 14.6447 13.2978ZM13.746 15.9792H6.55674C6.3184 15.9792 6.08982 16.0733 5.92129 16.2409C5.75276 16.4086 5.65808 16.6359 5.65808 16.873C5.65808 17.11 5.75276 17.3373 5.92129 17.505C6.08982 17.6726 6.3184 17.7667 6.55674 17.7667H13.746C13.9844 17.7667 14.213 17.6726 14.3815 17.505C14.55 17.3373 14.6447 17.11 14.6447 16.873C14.6447 16.6359 14.55 16.4086 14.3815 16.2409C14.213 16.0733 13.9844 15.9792 13.746 15.9792ZM20.0367 4.35984V21.3419C20.0367 22.2901 19.6579 23.1995 18.9838 23.8699C18.3097 24.5404 17.3954 24.9171 16.442 24.9171H3.86076C2.9074 24.9171 1.99309 24.5404 1.31896 23.8699C0.644834 23.1995 0.266113 22.2901 0.266113 21.3419V4.35984C0.266113 3.88574 0.455473 3.43106 0.792537 3.09583C1.1296 2.76059 1.58676 2.57226 2.06344 2.57226H3.86076V1.67846C3.86076 1.44141 3.95544 1.21407 4.12397 1.04645C4.2925 0.878835 4.52108 0.784668 4.75942 0.784668C4.99776 0.784668 5.22634 0.878835 5.39487 1.04645C5.5634 1.21407 5.65808 1.44141 5.65808 1.67846V2.57226H9.25273V1.67846C9.25273 1.44141 9.34741 1.21407 9.51594 1.04645C9.68447 0.878835 9.91305 0.784668 10.1514 0.784668C10.3897 0.784668 10.6183 0.878835 10.7868 1.04645C10.9554 1.21407 11.05 1.44141 11.05 1.67846V2.57226H14.6447V1.67846C14.6447 1.44141 14.7394 1.21407 14.9079 1.04645C15.0764 0.878835 15.305 0.784668 15.5434 0.784668C15.7817 0.784668 16.0103 0.878835 16.1788 1.04645C16.3473 1.21407 16.442 1.44141 16.442 1.67846V2.57226H18.2393C18.716 2.57226 19.1732 2.76059 19.5102 3.09583C19.8473 3.43106 20.0367 3.88574 20.0367 4.35984ZM18.2393 4.35984H16.442V5.25364C16.442 5.49068 16.3473 5.71802 16.1788 5.88564C16.0103 6.05326 15.7817 6.14743 15.5434 6.14743C15.305 6.14743 15.0764 6.05326 14.9079 5.88564C14.7394 5.71802 14.6447 5.49068 14.6447 5.25364V4.35984H11.05V5.25364C11.05 5.49068 10.9554 5.71802 10.7868 5.88564C10.6183 6.05326 10.3897 6.14743 10.1514 6.14743C9.91305 6.14743 9.68447 6.05326 9.51594 5.88564C9.34741 5.71802 9.25273 5.49068 9.25273 5.25364V4.35984H5.65808V5.25364C5.65808 5.49068 5.5634 5.71802 5.39487 5.88564C5.22634 6.05326 4.99776 6.14743 4.75942 6.14743C4.52108 6.14743 4.2925 6.05326 4.12397 5.88564C3.95544 5.71802 3.86076 5.49068 3.86076 5.25364V4.35984H2.06344V21.3419C2.06344 21.816 2.2528 22.2707 2.58986 22.6059C2.92692 22.9412 3.38408 23.1295 3.86076 23.1295H16.442C16.9187 23.1295 17.3759 22.9412 17.7129 22.6059C18.05 22.2707 18.2393 21.816 18.2393 21.3419V4.35984Z" fill="white"/>
</svg>
